<svg xmlns="http://www.w3.org/2000/svg" tabindex="0" id="logo" viewBox="0 0 331 47">  <g transform="translate(3,3) scale(1,1)" style="color: rgb(255, 255, 255);"> <g opacity="1" fill="#ffffff" style="font-size: 30px; font-family: &quot;Noto Sans&quot;, &quot;Source Sans 3&quot;, &quot;Roboto&quot;; font-style: normal; font-weight: normal"><path d="M16.35 32L13.77 25.37L5.28 25.37L2.73 32L0 32L8.37 10.49L10.8 10.49L19.14 32ZM10.56 16.49Q10.47 16.25 10.26 15.62Q10.05 14.99 9.85 14.32Q9.66 13.64 9.54 13.28Q9.39 13.88 9.22 14.5Q9.06 15.11 8.89 15.62Q8.73 16.13 8.61 16.49L6.18 22.97L12.96 22.97ZM27.42 32.3Q24.42 32.3 22.62 30.22Q20.82 28.13 20.82 23.99Q20.82 19.85 22.64 17.74Q24.45 15.62 27.45 15.62Q28.71 15.62 29.64 15.94Q30.57 16.25 31.26 16.79Q31.95 17.33 32.43 17.99L32.61 17.99Q32.58 17.6 32.5 16.84Q32.43 16.07 32.43 15.62L32.43 9.2L35.07 9.2L35.07 32L32.94 32L32.55 29.84L32.43 29.84Q31.95 30.53 31.26 31.08Q30.57 31.64 29.63 31.97Q28.68 32.3 27.42 32.3ZM27.84 30.11Q30.39 30.11 31.42 28.72Q32.46 27.32 32.46 24.5L32.46 24.02Q32.46 21.02 31.47 19.42Q30.48 17.81 27.81 17.81Q25.68 17.81 24.61 19.51Q23.55 21.2 23.55 24.05Q23.55 26.93 24.62 28.52Q25.68 30.11 27.84 30.11ZM50.64 27.56Q50.64 29.12 49.86 30.17Q49.08 31.22 47.64 31.76Q46.2 32.3 44.22 32.3Q42.54 32.3 41.33 32.03Q40.11 31.76 39.18 31.28L39.18 28.88Q40.14 29.36 41.51 29.77Q42.87 30.17 44.28 30.17Q46.29 30.17 47.19 29.53Q48.09 28.88 48.09 27.8Q48.09 27.2 47.76 26.72Q47.43 26.24 46.58 25.76Q45.72 25.28 44.13 24.68Q42.57 24.08 41.46 23.48Q40.35 22.88 39.75 22.04Q39.15 21.2 39.15 19.88Q39.15 17.84 40.82 16.73Q42.48 15.62 45.18 15.62Q46.65 15.62 47.93 15.91Q49.2 16.19 50.31 16.7L49.41 18.8Q48.39 18.38 47.28 18.08Q46.17 17.78 45 17.78Q43.38 17.78 42.53 18.31Q41.67 18.83 41.67 19.73Q41.67 20.39 42.06 20.86Q42.45 21.32 43.36 21.76Q44.28 22.19 45.81 22.79Q47.34 23.36 48.42 23.96Q49.5 24.56 50.07 25.42Q50.64 26.27 50.64 27.56ZM59.91 30.14Q60.51 30.14 61.14 30.04Q61.77 29.93 62.16 29.81L62.16 31.82Q61.74 32.03 60.96 32.17Q60.18 32.3 59.46 32.3Q58.2 32.3 57.13 31.87Q56.07 31.43 55.41 30.35Q54.75 29.27 54.75 27.32L54.75 17.96L52.47 17.96L52.47 16.7L54.78 15.65L55.83 12.23L57.39 12.23L57.39 15.92L62.04 15.92L62.04 17.96L57.39 17.96L57.39 27.26Q57.39 28.73 58.09 29.44Q58.8 30.14 59.91 30.14ZM72.87 15.62Q73.32 15.62 73.85 15.67Q74.37 15.71 74.76 15.8L74.43 18.23Q74.04 18.14 73.57 18.08Q73.11 18.02 72.69 18.02Q71.76 18.02 70.92 18.41Q70.08 18.8 69.42 19.51Q68.76 20.21 68.38 21.2Q68.01 22.19 68.01 23.42L68.01 32L65.37 32L65.37 15.92L67.53 15.92L67.83 18.86L67.95 18.86Q68.46 17.96 69.18 17.23Q69.9 16.49 70.83 16.06Q71.76 15.62 72.87 15.62ZM91.14 23.93Q91.14 25.94 90.61 27.49Q90.09 29.03 89.11 30.11Q88.14 31.19 86.74 31.74Q85.35 32.3 83.64 32.3Q82.05 32.3 80.7 31.75Q79.35 31.19 78.36 30.11Q77.37 29.03 76.81 27.49Q76.26 25.94 76.26 23.93Q76.26 21.26 77.16 19.42Q78.06 17.57 79.74 16.6Q81.42 15.62 83.73 15.62Q85.92 15.62 87.58 16.6Q89.25 17.57 90.19 19.42Q91.14 21.26 91.14 23.93ZM78.99 23.93Q78.99 25.82 79.48 27.22Q79.98 28.61 81.03 29.36Q82.08 30.11 83.7 30.11Q85.32 30.11 86.37 29.36Q87.42 28.61 87.92 27.21Q88.41 25.82 88.41 23.93Q88.41 22.01 87.9 20.66Q87.39 19.31 86.35 18.58Q85.32 17.84 83.67 17.84Q81.21 17.84 80.1 19.46Q78.99 21.08 78.99 23.93ZM101.01 32.3Q98.01 32.3 96.21 30.22Q94.41 28.13 94.41 23.99Q94.41 19.85 96.23 17.74Q98.04 15.62 101.04 15.62Q102.3 15.62 103.23 15.94Q104.16 16.25 104.85 16.79Q105.54 17.33 106.02 17.99L106.2 17.99Q106.17 17.6 106.09 16.84Q106.02 16.07 106.02 15.62L106.02 9.2L108.66 9.2L108.66 32L106.53 32L106.14 29.84L106.02 29.84Q105.54 30.53 104.85 31.08Q104.16 31.64 103.21 31.97Q102.27 32.3 101.01 32.3ZM101.43 30.11Q103.98 30.11 105.01 28.72Q106.05 27.32 106.05 24.5L106.05 24.02Q106.05 21.02 105.06 19.42Q104.07 17.81 101.4 17.81Q99.27 17.81 98.2 19.51Q97.14 21.2 97.14 24.05Q97.14 26.93 98.2 28.52Q99.27 30.11 101.43 30.11ZM116.4 15.92L116.4 32L113.76 32L113.76 15.92ZM115.11 9.89Q115.71 9.89 116.18 10.3Q116.64 10.7 116.64 11.57Q116.64 12.41 116.18 12.83Q115.71 13.25 115.11 13.25Q114.45 13.25 114 12.83Q113.55 12.41 113.55 11.57Q113.55 10.7 114 10.3Q114.45 9.89 115.11 9.89ZM127.2 15.62Q128.79 15.62 130.07 16.22Q131.34 16.82 132.24 18.05L132.39 18.05L132.75 15.92L134.85 15.92L134.85 32.27Q134.85 34.55 134.07 36.1Q133.29 37.64 131.7 38.42Q130.11 39.2 127.65 39.2Q125.91 39.2 124.45 38.95Q123 38.69 121.86 38.18L121.86 35.75Q123 36.35 124.53 36.68Q126.06 37.01 127.8 37.01Q129.87 37.01 131.05 35.8Q132.24 34.58 132.24 32.48L132.24 31.85Q132.24 31.49 132.27 30.82Q132.3 30.14 132.33 29.87L132.21 29.87Q131.37 31.1 130.13 31.7Q128.88 32.3 127.23 32.3Q124.11 32.3 122.35 30.11Q120.6 27.92 120.6 23.99Q120.6 20.15 122.35 17.88Q124.11 15.62 127.2 15.62ZM127.56 17.84Q126.21 17.84 125.26 18.56Q124.32 19.28 123.82 20.66Q123.33 22.04 123.33 24.02Q123.33 26.99 124.42 28.57Q125.52 30.14 127.62 30.14Q128.85 30.14 129.72 29.83Q130.59 29.51 131.16 28.83Q131.73 28.16 132 27.11Q132.27 26.06 132.27 24.62L132.27 23.99Q132.27 21.8 131.77 20.45Q131.28 19.1 130.23 18.47Q129.18 17.84 127.56 17.84ZM137.43 15.92L140.25 15.92L143.73 25.07Q144.03 25.88 144.28 26.63Q144.54 27.38 144.75 28.09Q144.96 28.79 145.08 29.45L145.2 29.45Q145.38 28.7 145.77 27.49Q146.16 26.27 146.58 25.04L149.85 15.92L152.7 15.92L145.77 34.22Q145.2 35.72 144.43 36.85Q143.67 37.97 142.57 38.59Q141.48 39.2 139.92 39.2Q139.2 39.2 138.66 39.13Q138.12 39.05 137.73 38.96L137.73 36.86Q138.06 36.92 138.52 36.98Q138.99 37.04 139.5 37.04Q140.43 37.04 141.1 36.7Q141.78 36.35 142.26 35.71Q142.74 35.06 143.07 34.19L143.91 32.06ZM163.41 32L163.41 10.58L166.11 10.58L166.11 29.6L175.47 29.6L175.47 32ZM184.86 15.65Q187.8 15.65 189.21 16.94Q190.62 18.23 190.62 21.05L190.62 32L188.7 32L188.19 29.72L188.07 29.72Q187.38 30.59 186.65 31.17Q185.91 31.76 184.97 32.03Q184.02 32.3 182.67 32.3Q181.23 32.3 180.08 31.79Q178.92 31.28 178.26 30.22Q177.6 29.15 177.6 27.53Q177.6 25.13 179.49 23.83Q181.38 22.52 185.31 22.4L188.04 22.31L188.04 21.35Q188.04 19.34 187.17 18.56Q186.3 17.78 184.71 17.78Q183.45 17.78 182.31 18.16Q181.17 18.53 180.18 19.01L179.37 17.03Q180.42 16.46 181.86 16.06Q183.3 15.65 184.86 15.65ZM185.64 24.23Q182.64 24.35 181.49 25.19Q180.33 26.03 180.33 27.56Q180.33 28.91 181.16 29.54Q181.98 30.17 183.27 30.17Q185.31 30.17 186.66 29.05Q188.01 27.92 188.01 25.58L188.01 24.14ZM198.24 14.75Q198.24 15.77 198.2 16.66Q198.15 17.54 198.09 18.05L198.24 18.05Q198.93 17.03 200.13 16.34Q201.33 15.65 203.22 15.65Q206.22 15.65 208.04 17.74Q209.85 19.82 209.85 23.96Q209.85 26.72 209.03 28.58Q208.2 30.44 206.7 31.37Q205.2 32.3 203.22 32.3Q201.33 32.3 200.13 31.61Q198.93 30.92 198.24 29.96L198.03 29.96L197.49 32L195.6 32L195.6 9.2L198.24 9.2ZM202.77 17.84Q201.06 17.84 200.07 18.49Q199.08 19.13 198.66 20.47Q198.24 21.8 198.24 23.87L198.24 23.99Q198.24 26.96 199.22 28.54Q200.19 30.11 202.83 30.11Q204.99 30.11 206.06 28.52Q207.12 26.93 207.12 23.93Q207.12 20.9 206.06 19.37Q204.99 17.84 202.77 17.84ZM222.21 32L222.21 10.58L224.91 10.58L224.91 29.6L234.27 29.6L234.27 32ZM240.21 15.92L240.21 32L237.57 32L237.57 15.92ZM238.92 9.89Q239.52 9.89 239.99 10.3Q240.45 10.7 240.45 11.57Q240.45 12.41 239.99 12.83Q239.52 13.25 238.92 13.25Q238.26 13.25 237.81 12.83Q237.36 12.41 237.36 11.57Q237.36 10.7 237.81 10.3Q238.26 9.89 238.92 9.89ZM262.95 15.62Q265.68 15.62 267.03 17.01Q268.38 18.41 268.38 21.53L268.38 32L265.77 32L265.77 21.65Q265.77 19.76 264.98 18.8Q264.18 17.84 262.5 17.84Q260.16 17.84 259.16 19.19Q258.15 20.54 258.15 23.12L258.15 32L255.54 32L255.54 21.65Q255.54 20.39 255.18 19.53Q254.82 18.68 254.1 18.26Q253.38 17.84 252.24 17.84Q250.62 17.84 249.69 18.52Q248.76 19.19 248.36 20.48Q247.95 21.77 247.95 23.66L247.95 32L245.31 32L245.31 15.92L247.44 15.92L247.83 18.11L247.98 18.11Q248.49 17.27 249.23 16.72Q249.96 16.16 250.86 15.89Q251.76 15.62 252.72 15.62Q254.58 15.62 255.83 16.28Q257.07 16.94 257.64 18.32L257.79 18.32Q258.6 16.94 260 16.28Q261.39 15.62 262.95 15.62ZM276 15.92L276 32L273.36 32L273.36 15.92ZM274.71 9.89Q275.31 9.89 275.77 10.3Q276.24 10.7 276.24 11.57Q276.24 12.41 275.77 12.83Q275.31 13.25 274.71 13.25Q274.05 13.25 273.6 12.83Q273.15 12.41 273.15 11.57Q273.15 10.7 273.6 10.3Q274.05 9.89 274.71 9.89ZM286.47 30.14Q287.07 30.14 287.7 30.04Q288.33 29.93 288.72 29.81L288.72 31.82Q288.3 32.03 287.52 32.17Q286.74 32.3 286.02 32.3Q284.76 32.3 283.7 31.87Q282.63 31.43 281.97 30.35Q281.31 29.27 281.31 27.32L281.31 17.96L279.03 17.96L279.03 16.7L281.34 15.65L282.39 12.23L283.95 12.23L283.95 15.92L288.6 15.92L288.6 17.96L283.95 17.96L283.95 27.26Q283.95 28.73 284.66 29.44Q285.36 30.14 286.47 30.14ZM298.14 15.62Q300.21 15.62 301.7 16.52Q303.18 17.42 303.97 19.06Q304.77 20.69 304.77 22.88L304.77 24.47L293.76 24.47Q293.82 27.2 295.15 28.63Q296.49 30.05 298.89 30.05Q300.42 30.05 301.61 29.77Q302.79 29.48 304.05 28.94L304.05 31.25Q302.82 31.79 301.62 32.05Q300.42 32.3 298.77 32.3Q296.49 32.3 294.74 31.37Q292.98 30.44 292.01 28.6Q291.03 26.75 291.03 24.08Q291.03 21.44 291.92 19.55Q292.8 17.66 294.4 16.64Q296.01 15.62 298.14 15.62ZM298.11 17.78Q296.22 17.78 295.13 19Q294.03 20.21 293.82 22.37L302.01 22.37Q302.01 20.99 301.59 19.97Q301.17 18.95 300.32 18.36Q299.46 17.78 298.11 17.78ZM314.55 32.3Q311.55 32.3 309.75 30.22Q307.95 28.13 307.95 23.99Q307.95 19.85 309.77 17.74Q311.58 15.62 314.58 15.62Q315.84 15.62 316.77 15.94Q317.7 16.25 318.39 16.79Q319.08 17.33 319.56 17.99L319.74 17.99Q319.71 17.6 319.64 16.84Q319.56 16.07 319.56 15.62L319.56 9.2L322.2 9.2L322.2 32L320.07 32L319.68 29.84L319.56 29.84Q319.08 30.53 318.39 31.08Q317.7 31.64 316.76 31.97Q315.81 32.3 314.55 32.3ZM314.97 30.11Q317.52 30.11 318.56 28.72Q319.59 27.32 319.59 24.5L319.59 24.02Q319.59 21.02 318.6 19.42Q317.61 17.81 314.94 17.81Q312.81 17.81 311.75 19.51Q310.68 21.2 310.68 24.05Q310.68 26.93 311.75 28.52Q312.81 30.11 314.97 30.11Z"/></g></g>  </svg>